# xmcd CD database file generated by Grip 3.2.0
# 
# Track frame offsets:
#       150
#       31432
#       63240
#       85482
#       110545
#       136320
#       176900
#       199227
# 
# Disc length: 2961 seconds
# 
# Revision: 1
# Processed by: cddbd v1.5.2PL0 Copyright (c) Steve Scherf et al.
# Submitted via: Grip 3.2.0
# 
DISCID=720b8f08
DTITLE=Paul Neufeld - Walk Together
DYEAR=2003
DGENRE=Jazz
TTITLE0=Deep River
TTITLE1=Go Down Moses
TTITLE2=(Sometimes I Feel Like A) Motherless Child
TTITLE3=Heaven
TTITLE4=Steal Away To Jesus
TTITLE5=My Soul's Been Anchored In The Lord
TTITLE6=I Want To Die Easy When I Die
TTITLE7=Walk Together Children
EXTD=YEAR: 2003
EXTT0=
EXTT1=
EXTT2=
EXTT3=
EXTT4=
EXTT5=
EXTT6=
EXTT7=
PLAYORDER=
